<svg width="16" height="20" viewBox="0 0 16 20" fill="none" xmlns="http://www.w3.org/2000/svg">
<path fill-rule="evenodd" clip-rule="evenodd" d="M8.00015 3.50011C5.51487 3.50011 3.50015 5.51483 3.50015 8.00011C3.50015 10.4854 5.51487 12.5001 8.00015 12.5001C10.4854 12.5001 12.5002 10.4854 12.5002 8.00011C12.5002 5.51483 10.4854 3.50011 8.00015 3.50011ZM5.50015 8.00011C5.50015 6.6194 6.61944 5.50011 8.00015 5.50011C9.38087 5.50011 10.5002 6.6194 10.5002 8.00011C10.5002 9.38083 9.38087 10.5001 8.00015 10.5001C6.61944 10.5001 5.50015 9.38083 5.50015 8.00011Z" fill="#004853"/>
<path fill-rule="evenodd" clip-rule="evenodd" d="M3.80939 1.5921C6.34711 -0.0997107 9.65319 -0.0997109 12.1909 1.5921C15.6218 3.87936 16.585 8.49512 14.3553 11.9637L10.5237 17.9239C9.34278 19.7608 6.65753 19.7608 5.47662 17.9239L1.64505 11.9637C-0.584719 8.49513 0.378499 3.87937 3.80939 1.5921ZM4.9188 3.2562C6.78471 2.01226 9.21559 2.01226 11.0815 3.2562C13.6042 4.93797 14.3124 8.33182 12.6729 10.8821L8.84133 16.8424C8.44769 17.4547 7.55261 17.4547 7.15897 16.8424L3.32741 10.8821C1.68792 8.33182 2.39615 4.93797 4.9188 3.2562Z" fill="#004853"/>
</svg>
