<svg width="40" height="40" viewBox="0 0 40 40" fill="none" xmlns="http://www.w3.org/2000/svg">
<path d="M7.0362 32.9633C7.80932 33.7375 8.72781 34.3513 9.73889 34.7695C10.75 35.1877 11.8337 35.4019 12.9279 35.3999C14.0222 35.4019 15.1062 35.1876 16.1176 34.7694C17.1289 34.3513 18.0477 33.7375 18.8212 32.9633L23.5345 28.2483L21.1779 25.8916L16.4645 30.6066C15.5253 31.5416 14.254 32.0666 12.9287 32.0666C11.6034 32.0666 10.3321 31.5416 9.39286 30.6066C8.45704 29.6678 7.93154 28.3963 7.93154 27.0708C7.93154 25.7452 8.45704 24.4737 9.39286 23.5349L14.1079 18.8216L11.7512 16.4649L7.0362 21.1783C5.47587 22.7424 4.59961 24.8615 4.59961 27.0708C4.59961 29.2801 5.47587 31.3992 7.0362 32.9633ZM32.9629 18.8216C34.5224 17.2571 35.3981 15.1381 35.3981 12.9291C35.3981 10.7201 34.5224 8.60113 32.9629 7.03661C31.3988 5.47629 29.2797 4.60002 27.0704 4.60002C24.8611 4.60002 22.742 5.47629 21.1779 7.03661L16.4645 11.7516L18.8212 14.1083L23.5345 9.39327C24.4737 8.45826 25.7451 7.93332 27.0704 7.93332C28.3957 7.93332 29.667 8.45826 30.6062 9.39327C31.542 10.3321 32.0675 11.6036 32.0675 12.9291C32.0675 14.2547 31.542 15.5262 30.6062 16.4649L25.8912 21.1783L28.2479 23.5349L32.9629 18.8216Z" fill="#8A8585"/>
<path d="M14.1062 28.2501L11.7478 25.8934L25.8928 11.7501L28.2495 14.1084L14.1062 28.2501Z" fill="#8A8585"/>
</svg>
