<svg width="21" height="21" viewBox="0 0 21 21" fill="none" xmlns="http://www.w3.org/2000/svg">
<path fill-rule="evenodd" clip-rule="evenodd" d="M7.87445 1.80731C6.31235 0.245216 3.77969 0.24522 2.21759 1.80732L1.68206 2.34285C0.943692 3.08122 0.438665 4.18769 0.726726 5.38629C1.16834 7.2238 2.49723 10.5722 6.46023 14.5352C10.4232 18.4982 13.7717 19.8271 15.6092 20.2687C16.8078 20.5568 17.9143 20.0518 18.6526 19.3134L19.1882 18.7779C20.7503 17.2158 20.7503 14.6831 19.1882 13.121L18.2593 12.1921C16.986 10.9189 15.0189 10.6533 13.4536 11.5434L13.3571 11.5983C12.7157 11.963 11.9788 11.9332 11.4568 11.5554C11.0355 11.2506 10.6329 10.9298 10.3493 10.6461C10.0657 10.3625 9.74489 9.95994 9.44004 9.53871C9.06224 9.01668 9.03243 8.2798 9.39717 7.63836L9.45206 7.54183C10.3421 5.97653 10.0766 4.00945 8.80332 2.73619L7.87445 1.80731ZM3.63181 3.22153C4.41286 2.44048 5.67918 2.44048 6.46023 3.22153L7.38911 4.15041C8.02574 4.78704 8.15851 5.77057 7.71348 6.55322L7.65859 6.64976C6.95368 7.88942 6.92895 9.48029 7.81983 10.7113C8.14706 11.1634 8.54031 11.6656 8.93511 12.0604C9.3299 12.4552 9.83204 12.8484 10.2842 13.1756C11.5152 14.0665 13.1061 14.0418 14.3457 13.3369L14.4422 13.282C15.2249 12.837 16.2084 12.9697 16.8451 13.6064L17.7739 14.5352C18.555 15.3163 18.555 16.5826 17.7739 17.3637L17.2384 17.8992C16.8516 18.286 16.4252 18.4079 16.0765 18.3241C14.6075 17.9711 11.5841 16.8307 7.87445 13.121C4.16478 9.41135 3.02441 6.38797 2.67135 4.91893C2.58756 4.57029 2.70942 4.14391 3.09627 3.75706L3.63181 3.22153Z" fill="#004853"/>
</svg>
